<?xml version="1.0" encoding="UTF-8" standalone="no"?>
<!DOCTYPE svg PUBLIC "-//W3C//DTD SVG 1.1//EN"
 "http://www.w3.org/Graphics/SVG/1.1/DTD/svg11.dtd">
<!-- Generated by graphviz version 2.43.0 (0)
 -->
<!-- Title: trace Pages: 1 -->
<svg width="423pt" height="991pt"
 viewBox="0.00 0.00 423.00 991.00" xmlns="http://www.w3.org/2000/svg" xmlns:xlink="http://www.w3.org/1999/xlink">
<g id="graph0" class="graph" transform="scale(1 1) rotate(0) translate(4 987)">
<title>trace</title>
<polygon fill="white" stroke="transparent" points="-4,4 -4,-987 419,-987 419,4 -4,4"/>
<g id="clust1" class="cluster">
<title>cluster_AS15169</title>
<polygon fill="none" stroke="#608686" points="8,-64 8,-291 407,-291 407,-64 8,-64"/>
<text text-anchor="middle" x="207.5" y="-279" font-family="Times,serif" font-size="10.00">AS15169</text>
<text text-anchor="middle" x="207.5" y="-268" font-family="Times,serif" font-size="10.00">[Google]</text>
</g>
<!-- 142.250.208.105 -->
<g id="node1" class="node">
<title>142.250.208.105</title>
<ellipse fill="#608686" stroke="black" cx="175" cy="-162" rx="89.88" ry="18"/>
<text text-anchor="middle" x="175" y="-158.3" font-family="Times,serif" font-size="14.00">142.250.208.105</text>
</g>
<!-- 209.85.248.211 -->
<g id="node3" class="node">
<title>209.85.248.211</title>
<ellipse fill="#608686" stroke="black" cx="195" cy="-90" rx="83.69" ry="18"/>
<text text-anchor="middle" x="195" y="-86.3" font-family="Times,serif" font-size="14.00">209.85.248.211</text>
</g>
<!-- 142.250.208.105&#45;&gt;209.85.248.211 -->
<g id="edge12" class="edge">
<title>142.250.208.105&#45;&gt;209.85.248.211</title>
<path fill="none" stroke="#a07070" d="M179.94,-143.7C182.17,-135.9 184.85,-126.51 187.33,-117.83"/>
<polygon fill="#a07070" stroke="#a07070" points="190.73,-118.68 190.11,-108.1 184,-116.76 190.73,-118.68"/>
</g>
<!-- 74.125.50.202 -->
<g id="node2" class="node">
<title>74.125.50.202</title>
<ellipse fill="#608686" stroke="black" cx="94" cy="-234.5" rx="77.99" ry="18"/>
<text text-anchor="middle" x="94" y="-230.8" font-family="Times,serif" font-size="14.00">74.125.50.202</text>
</g>
<!-- 74.125.50.202&#45;&gt;142.250.208.105 -->
<g id="edge11" class="edge">
<title>74.125.50.202&#45;&gt;142.250.208.105</title>
<path fill="none" stroke="#a07070" d="M113.2,-216.79C123.61,-207.73 136.65,-196.38 148.07,-186.44"/>
<polygon fill="#a07070" stroke="#a07070" points="150.42,-189.04 155.66,-179.83 145.82,-183.76 150.42,-189.04"/>
</g>
<!-- unk1 -->
<g id="node15" class="node">
<title>unk1</title>
<ellipse fill="none" stroke="black" cx="271" cy="-18" rx="33.6" ry="18"/>
<text text-anchor="middle" x="271" y="-14.3" font-family="Times,serif" font-size="14.00">unk1</text>
</g>
<!-- 209.85.248.211&#45;&gt;unk1 -->
<g id="edge13" class="edge">
<title>209.85.248.211&#45;&gt;unk1</title>
<path fill="none" stroke="#a07070" d="M213.01,-72.41C223.18,-63.04 236.03,-51.21 247.04,-41.07"/>
<polygon fill="#a07070" stroke="#a07070" points="249.69,-43.39 254.67,-34.04 244.95,-38.24 249.69,-43.39"/>
</g>
<!-- 172.217.163.196 -->
<g id="node4" class="node">
<title>172.217.163.196</title>
<polygon fill="green" stroke="black" points="189.5,-216.5 189.5,-252.5 398.5,-252.5 398.5,-216.5 189.5,-216.5"/>
<text text-anchor="middle" x="258.5" y="-230.8" font-family="Times,serif" font-size="14.00">172.217.163.196</text>
<polyline fill="none" stroke="black" points="327.5,-216.5 327.5,-252.5 "/>
<text text-anchor="middle" x="363" y="-230.8" font-family="Times,serif" font-size="14.00">http SA</text>
</g>
<!-- 192.168.43.1 -->
<g id="node5" class="node">
<title>192.168.43.1</title>
<ellipse fill="none" stroke="black" cx="94" cy="-965" rx="72.29" ry="18"/>
<text text-anchor="middle" x="94" y="-961.3" font-family="Times,serif" font-size="14.00">192.168.43.1</text>
</g>
<!-- unk0 -->
<g id="node6" class="node">
<title>unk0</title>
<ellipse fill="none" stroke="black" cx="94" cy="-893" rx="33.6" ry="18"/>
<text text-anchor="middle" x="94" y="-889.3" font-family="Times,serif" font-size="14.00">unk0</text>
</g>
<!-- 192.168.43.1&#45;&gt;unk0 -->
<g id="edge1" class="edge">
<title>192.168.43.1&#45;&gt;unk0</title>
<path fill="none" stroke="#a07070" d="M94,-946.7C94,-938.98 94,-929.71 94,-921.11"/>
<polygon fill="#a07070" stroke="#a07070" points="97.5,-921.1 94,-911.1 90.5,-921.1 97.5,-921.1"/>
</g>
<!-- 56.14.12.125 -->
<g id="node7" class="node">
<title>56.14.12.125</title>
<ellipse fill="none" stroke="black" cx="94" cy="-821" rx="72.29" ry="18"/>
<text text-anchor="middle" x="94" y="-817.3" font-family="Times,serif" font-size="14.00">56.14.12.125</text>
</g>
<!-- unk0&#45;&gt;56.14.12.125 -->
<g id="edge2" class="edge">
<title>unk0&#45;&gt;56.14.12.125</title>
<path fill="none" stroke="#a07070" d="M94,-874.7C94,-866.98 94,-857.71 94,-849.11"/>
<polygon fill="#a07070" stroke="#a07070" points="97.5,-849.1 94,-839.1 90.5,-849.1 97.5,-849.1"/>
</g>
<!-- 172.26.108.245 -->
<g id="node8" class="node">
<title>172.26.108.245</title>
<ellipse fill="none" stroke="black" cx="94" cy="-749" rx="83.69" ry="18"/>
<text text-anchor="middle" x="94" y="-745.3" font-family="Times,serif" font-size="14.00">172.26.108.245</text>
</g>
<!-- 56.14.12.125&#45;&gt;172.26.108.245 -->
<g id="edge3" class="edge">
<title>56.14.12.125&#45;&gt;172.26.108.245</title>
<path fill="none" stroke="#a07070" d="M94,-802.7C94,-794.98 94,-785.71 94,-777.11"/>
<polygon fill="#a07070" stroke="#a07070" points="97.5,-777.1 94,-767.1 90.5,-777.1 97.5,-777.1"/>
</g>
<!-- 172.26.108.227 -->
<g id="node9" class="node">
<title>172.26.108.227</title>
<ellipse fill="none" stroke="black" cx="94" cy="-677" rx="83.69" ry="18"/>
<text text-anchor="middle" x="94" y="-673.3" font-family="Times,serif" font-size="14.00">172.26.108.227</text>
</g>
<!-- 172.26.108.245&#45;&gt;172.26.108.227 -->
<g id="edge4" class="edge">
<title>172.26.108.245&#45;&gt;172.26.108.227</title>
<path fill="none" stroke="#a07070" d="M94,-730.7C94,-722.98 94,-713.71 94,-705.11"/>
<polygon fill="#a07070" stroke="#a07070" points="97.5,-705.1 94,-695.1 90.5,-705.1 97.5,-705.1"/>
</g>
<!-- 192.168.114.5 -->
<g id="node10" class="node">
<title>192.168.114.5</title>
<ellipse fill="none" stroke="black" cx="94" cy="-605" rx="77.99" ry="18"/>
<text text-anchor="middle" x="94" y="-601.3" font-family="Times,serif" font-size="14.00">192.168.114.5</text>
</g>
<!-- 172.26.108.227&#45;&gt;192.168.114.5 -->
<g id="edge5" class="edge">
<title>172.26.108.227&#45;&gt;192.168.114.5</title>
<path fill="none" stroke="#a07070" d="M94,-658.7C94,-650.98 94,-641.71 94,-633.11"/>
<polygon fill="#a07070" stroke="#a07070" points="97.5,-633.1 94,-623.1 90.5,-633.1 97.5,-633.1"/>
</g>
<!-- 192.168.114.2 -->
<g id="node11" class="node">
<title>192.168.114.2</title>
<ellipse fill="none" stroke="black" cx="94" cy="-533" rx="77.99" ry="18"/>
<text text-anchor="middle" x="94" y="-529.3" font-family="Times,serif" font-size="14.00">192.168.114.2</text>
</g>
<!-- 192.168.114.5&#45;&gt;192.168.114.2 -->
<g id="edge6" class="edge">
<title>192.168.114.5&#45;&gt;192.168.114.2</title>
<path fill="none" stroke="#a07070" d="M94,-586.7C94,-578.98 94,-569.71 94,-561.11"/>
<polygon fill="#a07070" stroke="#a07070" points="97.5,-561.1 94,-551.1 90.5,-561.1 97.5,-561.1"/>
</g>
<!-- 172.16.21.21 -->
<g id="node12" class="node">
<title>172.16.21.21</title>
<ellipse fill="none" stroke="black" cx="94" cy="-461" rx="72.29" ry="18"/>
<text text-anchor="middle" x="94" y="-457.3" font-family="Times,serif" font-size="14.00">172.16.21.21</text>
</g>
<!-- 192.168.114.2&#45;&gt;172.16.21.21 -->
<g id="edge7" class="edge">
<title>192.168.114.2&#45;&gt;172.16.21.21</title>
<path fill="none" stroke="#a07070" d="M94,-514.7C94,-506.98 94,-497.71 94,-489.11"/>
<polygon fill="#a07070" stroke="#a07070" points="97.5,-489.1 94,-479.1 90.5,-489.1 97.5,-489.1"/>
</g>
<!-- 172.16.3.14 -->
<g id="node13" class="node">
<title>172.16.3.14</title>
<ellipse fill="none" stroke="black" cx="94" cy="-389" rx="66.09" ry="18"/>
<text text-anchor="middle" x="94" y="-385.3" font-family="Times,serif" font-size="14.00">172.16.3.14</text>
</g>
<!-- 172.16.21.21&#45;&gt;172.16.3.14 -->
<g id="edge8" class="edge">
<title>172.16.21.21&#45;&gt;172.16.3.14</title>
<path fill="none" stroke="#a07070" d="M94,-442.7C94,-434.98 94,-425.71 94,-417.11"/>
<polygon fill="#a07070" stroke="#a07070" points="97.5,-417.1 94,-407.1 90.5,-417.1 97.5,-417.1"/>
</g>
<!-- 172.16.2.9 -->
<g id="node14" class="node">
<title>172.16.2.9</title>
<ellipse fill="none" stroke="black" cx="94" cy="-317" rx="60.39" ry="18"/>
<text text-anchor="middle" x="94" y="-313.3" font-family="Times,serif" font-size="14.00">172.16.2.9</text>
</g>
<!-- 172.16.3.14&#45;&gt;172.16.2.9 -->
<g id="edge9" class="edge">
<title>172.16.3.14&#45;&gt;172.16.2.9</title>
<path fill="none" stroke="#a07070" d="M94,-370.7C94,-362.98 94,-353.71 94,-345.11"/>
<polygon fill="#a07070" stroke="#a07070" points="97.5,-345.1 94,-335.1 90.5,-345.1 97.5,-345.1"/>
</g>
<!-- 172.16.2.9&#45;&gt;74.125.50.202 -->
<g id="edge10" class="edge">
<title>172.16.2.9&#45;&gt;74.125.50.202</title>
<path fill="none" stroke="#a07070" d="M94,-298.93C94,-288.47 94,-274.84 94,-262.9"/>
<polygon fill="#a07070" stroke="#a07070" points="97.5,-262.55 94,-252.55 90.5,-262.55 97.5,-262.55"/>
</g>
<!-- unk1&#45;&gt;172.217.163.196 -->
<g id="edge14" class="edge">
<title>unk1&#45;&gt;172.217.163.196:T80</title>
<path fill="none" stroke="#a07070" d="M284.18,-34.69C308.43,-65.12 358.06,-135.39 362.66,-205.64"/>
<polygon fill="#a07070" stroke="#a07070" points="359.17,-206.12 363,-216 366.17,-205.89 359.17,-206.12"/>
</g>
</g>
</svg>
