<?xml version="1.0" encoding="UTF-8" standalone="no"?>
<!DOCTYPE svg PUBLIC "-//W3C//DTD SVG 1.1//EN"
 "http://www.w3.org/Graphics/SVG/1.1/DTD/svg11.dtd">
<!-- Generated by graphviz version 2.43.0 (0)
 -->
<!-- Title: trace Pages: 1 -->
<svg width="371pt" height="539pt"
 viewBox="0.00 0.00 371.00 539.00" xmlns="http://www.w3.org/2000/svg" xmlns:xlink="http://www.w3.org/1999/xlink">
<g id="graph0" class="graph" transform="scale(1 1) rotate(0) translate(4 535)">
<title>trace</title>
<polygon fill="white" stroke="transparent" points="-4,4 -4,-535 367,-535 367,4 -4,4"/>
<g id="clust1" class="cluster">
<title>cluster_AS15169</title>
<polygon fill="none" stroke="#608686" points="8,-8 8,-235 192,-235 192,-8 8,-8"/>
<text text-anchor="middle" x="100" y="-223" font-family="Times,serif" font-size="10.00">AS15169</text>
<text text-anchor="middle" x="100" y="-212" font-family="Times,serif" font-size="10.00">[Google]</text>
</g>
<g id="clust2" class="cluster">
<title>cluster_AS45820</title>
<polygon fill="none" stroke="#60baba" points="174,-333 174,-415 355,-415 355,-333 174,-333"/>
<text text-anchor="middle" x="264.5" y="-403" font-family="Times,serif" font-size="10.00">AS45820</text>
<text text-anchor="middle" x="264.5" y="-392" font-family="Times,serif" font-size="10.00">[TATA TELESERVICES LTD &#45;&#45; CDMA]</text>
</g>
<g id="clust3" class="cluster">
<title>cluster_AS4755</title>
<polygon fill="none" stroke="#60ffff" points="52,-243 52,-325 334,-325 334,-243 52,-243"/>
<text text-anchor="middle" x="193" y="-313" font-family="Times,serif" font-size="10.00">AS4755</text>
<text text-anchor="middle" x="193" y="-302" font-family="Times,serif" font-size="10.00">[VSNL Route Object]</text>
</g>
<!-- 216.239.59.171 -->
<g id="node1" class="node">
<title>216.239.59.171</title>
<ellipse fill="#608686" stroke="black" cx="118" cy="-107" rx="66.09" ry="18"/>
<text text-anchor="middle" x="118" y="-103.3" font-family="Times,serif" font-size="14.00">216.239.59.171</text>
</g>
<!-- 172.217.160.132 -->
<g id="node3" class="node">
<title>172.217.160.132</title>
<polygon fill="green" stroke="black" points="16,-16.5 16,-52.5 184,-52.5 184,-16.5 16,-16.5"/>
<text text-anchor="middle" x="70.5" y="-30.8" font-family="Times,serif" font-size="14.00">172.217.160.132</text>
<polyline fill="none" stroke="black" points="125,-16.5 125,-52.5 "/>
<text text-anchor="middle" x="154.5" y="-30.8" font-family="Times,serif" font-size="14.00">http SA</text>
</g>
<!-- 216.239.59.171&#45;&gt;172.217.160.132 -->
<g id="edge8" class="edge">
<title>216.239.59.171&#45;&gt;172.217.160.132:T80</title>
<path fill="none" stroke="#a07070" d="M137.37,-89.36C144.08,-82.18 150.64,-73.14 153.5,-63.21"/>
<polygon fill="#a07070" stroke="#a07070" points="157.01,-63.4 155,-53 150.09,-62.39 157.01,-63.4"/>
</g>
<!-- 216.239.43.131 -->
<g id="node2" class="node">
<title>216.239.43.131</title>
<ellipse fill="#608686" stroke="black" cx="118" cy="-179" rx="66.09" ry="18"/>
<text text-anchor="middle" x="118" y="-175.3" font-family="Times,serif" font-size="14.00">216.239.43.131</text>
</g>
<!-- 216.239.43.131&#45;&gt;216.239.59.171 -->
<g id="edge7" class="edge">
<title>216.239.43.131&#45;&gt;216.239.59.171</title>
<path fill="none" stroke="#a07070" d="M118,-160.7C118,-152.98 118,-143.71 118,-135.11"/>
<polygon fill="#a07070" stroke="#a07070" points="121.5,-135.1 118,-125.1 114.5,-135.1 121.5,-135.1"/>
</g>
<!-- 14.97.164.37 -->
<g id="node4" class="node">
<title>14.97.164.37</title>
<ellipse fill="#60baba" stroke="black" cx="260" cy="-359" rx="57.69" ry="18"/>
<text text-anchor="middle" x="260" y="-355.3" font-family="Times,serif" font-size="14.00">14.97.164.37</text>
</g>
<!-- 121.240.238.37 -->
<g id="node6" class="node">
<title>121.240.238.37</title>
<ellipse fill="#60ffff" stroke="black" cx="260" cy="-269" rx="66.09" ry="18"/>
<text text-anchor="middle" x="260" y="-265.3" font-family="Times,serif" font-size="14.00">121.240.238.37</text>
</g>
<!-- 14.97.164.37&#45;&gt;121.240.238.37 -->
<g id="edge3" class="edge">
<title>14.97.164.37&#45;&gt;121.240.238.37</title>
<path fill="none" stroke="#a07070" d="M260,-340.61C260,-328.24 260,-311.37 260,-297.22"/>
<polygon fill="#a07070" stroke="#a07070" points="263.5,-297.05 260,-287.05 256.5,-297.05 263.5,-297.05"/>
</g>
<!-- 121.240.1.46 -->
<g id="node5" class="node">
<title>121.240.1.46</title>
<ellipse fill="#60ffff" stroke="black" cx="118" cy="-269" rx="57.69" ry="18"/>
<text text-anchor="middle" x="118" y="-265.3" font-family="Times,serif" font-size="14.00">121.240.1.46</text>
</g>
<!-- 121.240.1.46&#45;&gt;216.239.43.131 -->
<g id="edge6" class="edge">
<title>121.240.1.46&#45;&gt;216.239.43.131</title>
<path fill="none" stroke="#a07070" d="M118,-250.61C118,-238.24 118,-221.37 118,-207.22"/>
<polygon fill="#a07070" stroke="#a07070" points="121.5,-207.05 118,-197.05 114.5,-207.05 121.5,-207.05"/>
</g>
<!-- unk0 -->
<g id="node9" class="node">
<title>unk0</title>
<ellipse fill="none" stroke="black" cx="246" cy="-179" rx="28.7" ry="18"/>
<text text-anchor="middle" x="246" y="-175.3" font-family="Times,serif" font-size="14.00">unk0</text>
</g>
<!-- 121.240.238.37&#45;&gt;unk0 -->
<g id="edge4" class="edge">
<title>121.240.238.37&#45;&gt;unk0</title>
<path fill="none" stroke="#a07070" d="M257.23,-250.61C255.27,-238.24 252.58,-221.37 250.33,-207.22"/>
<polygon fill="#a07070" stroke="#a07070" points="253.74,-206.38 248.71,-197.05 246.83,-207.48 253.74,-206.38"/>
</g>
<!-- 10.42.0.1 -->
<g id="node7" class="node">
<title>10.42.0.1</title>
<ellipse fill="none" stroke="black" cx="260" cy="-513" rx="44.39" ry="18"/>
<text text-anchor="middle" x="260" y="-509.3" font-family="Times,serif" font-size="14.00">10.42.0.1</text>
</g>
<!-- 192.168.224.1 -->
<g id="node8" class="node">
<title>192.168.224.1</title>
<ellipse fill="none" stroke="black" cx="260" cy="-441" rx="61.99" ry="18"/>
<text text-anchor="middle" x="260" y="-437.3" font-family="Times,serif" font-size="14.00">192.168.224.1</text>
</g>
<!-- 10.42.0.1&#45;&gt;192.168.224.1 -->
<g id="edge1" class="edge">
<title>10.42.0.1&#45;&gt;192.168.224.1</title>
<path fill="none" stroke="#a07070" d="M260,-494.7C260,-486.98 260,-477.71 260,-469.11"/>
<polygon fill="#a07070" stroke="#a07070" points="263.5,-469.1 260,-459.1 256.5,-469.1 263.5,-469.1"/>
</g>
<!-- 192.168.224.1&#45;&gt;14.97.164.37 -->
<g id="edge2" class="edge">
<title>192.168.224.1&#45;&gt;14.97.164.37</title>
<path fill="none" stroke="#a07070" d="M260,-422.64C260,-412.3 260,-398.94 260,-387.22"/>
<polygon fill="#a07070" stroke="#a07070" points="263.5,-387.05 260,-377.05 256.5,-387.05 263.5,-387.05"/>
</g>
<!-- unk0&#45;&gt;121.240.1.46 -->
<g id="edge5" class="edge">
<title>unk0&#45;&gt;121.240.1.46</title>
<path fill="none" stroke="#a07070" d="M234.75,-195.7C225.47,-207.75 211.37,-224.1 196,-235 186.91,-241.44 176.36,-246.97 166.02,-251.55"/>
<polygon fill="#a07070" stroke="#a07070" points="164.49,-248.39 156.63,-255.49 167.2,-254.85 164.49,-248.39"/>
</g>
</g>
</svg>
